<mxfile host="app.diagrams.net" modified="2020-08-26T15:02:22.270Z" agent="5.0 (Windows)" etag="YWpi0fy6sGnepjpPc8hY" version="13.6.5" type="github">
  <diagram id="AKFp9x0IBh2-5NKwpCKr" name="Page-1">
    <mxGraphModel dx="856" dy="513" grid="1" gridSize="10" guides="1" tooltips="1" connect="1" arrows="1" fold="1" page="1" pageScale="1" pageWidth="827" pageHeight="1169" math="0" shadow="0">
      <root>
        <mxCell id="0" />
        <mxCell id="1" parent="0" />
        <mxCell id="G0h0YU3dxmo6zqzjJFRH-6" style="edgeStyle=orthogonalEdgeStyle;rounded=0;orthogonalLoop=1;jettySize=auto;html=1;exitX=0.5;exitY=1;exitDx=0;exitDy=0;exitPerimeter=0;entryX=0.5;entryY=0;entryDx=0;entryDy=0;" edge="1" parent="1" source="G0h0YU3dxmo6zqzjJFRH-1" target="G0h0YU3dxmo6zqzjJFRH-2">
          <mxGeometry relative="1" as="geometry" />
        </mxCell>
        <mxCell id="G0h0YU3dxmo6zqzjJFRH-1" value="Start" style="strokeWidth=2;html=1;shape=mxgraph.flowchart.start_1;whiteSpace=wrap;" vertex="1" parent="1">
          <mxGeometry x="210" y="100" width="100" height="60" as="geometry" />
        </mxCell>
        <mxCell id="G0h0YU3dxmo6zqzjJFRH-7" style="edgeStyle=orthogonalEdgeStyle;rounded=0;orthogonalLoop=1;jettySize=auto;html=1;exitX=0.5;exitY=1;exitDx=0;exitDy=0;entryX=0.51;entryY=0.15;entryDx=0;entryDy=0;entryPerimeter=0;" edge="1" parent="1" source="G0h0YU3dxmo6zqzjJFRH-2" target="G0h0YU3dxmo6zqzjJFRH-4">
          <mxGeometry relative="1" as="geometry" />
        </mxCell>
        <mxCell id="G0h0YU3dxmo6zqzjJFRH-2" value="valorMetro, valorMilimetro" style="shape=internalStorage;whiteSpace=wrap;html=1;dx=15;dy=15;rounded=1;arcSize=8;strokeWidth=2;" vertex="1" parent="1">
          <mxGeometry x="157.5" y="200" width="205" height="70" as="geometry" />
        </mxCell>
        <mxCell id="G0h0YU3dxmo6zqzjJFRH-3" value="valorMilimetro" style="strokeWidth=2;html=1;shape=mxgraph.flowchart.document2;whiteSpace=wrap;size=0.25;" vertex="1" parent="1">
          <mxGeometry x="210" y="520" width="100" height="60" as="geometry" />
        </mxCell>
        <mxCell id="G0h0YU3dxmo6zqzjJFRH-11" style="edgeStyle=orthogonalEdgeStyle;rounded=0;orthogonalLoop=1;jettySize=auto;html=1;exitX=0.5;exitY=1;exitDx=0;exitDy=0;entryX=0.5;entryY=0;entryDx=0;entryDy=0;" edge="1" parent="1" source="G0h0YU3dxmo6zqzjJFRH-4" target="G0h0YU3dxmo6zqzjJFRH-10">
          <mxGeometry relative="1" as="geometry" />
        </mxCell>
        <mxCell id="G0h0YU3dxmo6zqzjJFRH-4" value="valorMetro" style="html=1;strokeWidth=2;shape=manualInput;whiteSpace=wrap;rounded=1;size=26;arcSize=11;" vertex="1" parent="1">
          <mxGeometry x="210" y="300" width="100" height="60" as="geometry" />
        </mxCell>
        <mxCell id="G0h0YU3dxmo6zqzjJFRH-5" value="End" style="strokeWidth=2;html=1;shape=mxgraph.flowchart.start_1;whiteSpace=wrap;" vertex="1" parent="1">
          <mxGeometry x="210" y="610" width="100" height="60" as="geometry" />
        </mxCell>
        <mxCell id="G0h0YU3dxmo6zqzjJFRH-9" value="" style="endArrow=classic;html=1;exitX=0.5;exitY=0.833;exitDx=0;exitDy=0;exitPerimeter=0;entryX=0.5;entryY=0;entryDx=0;entryDy=0;entryPerimeter=0;" edge="1" parent="1" source="G0h0YU3dxmo6zqzjJFRH-3" target="G0h0YU3dxmo6zqzjJFRH-5">
          <mxGeometry width="50" height="50" relative="1" as="geometry">
            <mxPoint x="390" y="350" as="sourcePoint" />
            <mxPoint x="440" y="300" as="targetPoint" />
          </mxGeometry>
        </mxCell>
        <mxCell id="G0h0YU3dxmo6zqzjJFRH-12" style="edgeStyle=orthogonalEdgeStyle;rounded=0;orthogonalLoop=1;jettySize=auto;html=1;exitX=0.5;exitY=1;exitDx=0;exitDy=0;entryX=0.5;entryY=0;entryDx=0;entryDy=0;entryPerimeter=0;" edge="1" parent="1" source="G0h0YU3dxmo6zqzjJFRH-10" target="G0h0YU3dxmo6zqzjJFRH-3">
          <mxGeometry relative="1" as="geometry" />
        </mxCell>
        <mxCell id="G0h0YU3dxmo6zqzjJFRH-10" value="valorMilimetro = 1000*valorMetro" style="rounded=1;whiteSpace=wrap;html=1;" vertex="1" parent="1">
          <mxGeometry x="200" y="420" width="120" height="60" as="geometry" />
        </mxCell>
      </root>
    </mxGraphModel>
  </diagram>
</mxfile>
